<?xml version="1.0" encoding="UTF-8"?>
<svg width="289px" height="90px" viewBox="0 0 289 90" version="1.1" xmlns="http://www.w3.org/2000/svg" xmlns:xlink="http://www.w3.org/1999/xlink">
    <title>编组</title>
    <g id="推介会素材" stroke="none" stroke-width="1" fill="none" fill-rule="evenodd">
        <g id="编组-8" transform="translate(-984.51, -77.72)" fill="#FFFFFF" fill-rule="nonzero">
            <g id="编组" transform="translate(984.81, 77.7159)">
                <g transform="translate(0, 2.5835)">
                    <path d="M104.52,21.0105821 L107.28,16.6805821 C101.92,13.5105821 96.28,10.9805821 90.49,9.08058208 L88.78,13.7805821 C94.22,15.6005821 99.5,18.0105821 104.52,21.0205821 L104.52,21.0105821 Z" id="路径"></path>
                    <path d="M95.55,40.9005821 C97.83,43.1805821 99.95,45.5705821 101.91,48.0505821 L118.41,31.5505821 C114.09,27.4705821 109.43,23.9605821 104.52,21.0205821 L93.25,38.7005821 C94.03,39.4205821 94.79,40.1505821 95.55,40.9005821 L95.55,40.9005821 Z" id="路径"></path>
                    <path d="M38.87,13.4305821 C38.18,14.2505821 37.73,15.3405821 37.68,16.5605821 C37.68,16.7505821 37.68,16.9305821 37.68,17.1105821 C36.24,17.1105821 34.81,17.1605821 33.37,17.2405821 C33.38,17.0605821 33.38,16.8805821 33.37,16.7005821 C33.33,16.2805821 33.22,15.8805821 33.05,15.5305821 C34.96,14.7505821 36.9,14.0505821 38.86,13.4305821 L38.87,13.4305821 Z M43.33,12.1505821 C45.07,12.8105821 46.29,14.7205821 46.19,16.9205821 C46.19,17.1205821 46.16,17.3105821 46.13,17.5005821 C47.55,17.6405821 48.97,17.8205821 50.38,18.0305821 C50.45,17.6205821 50.53,17.2005821 50.67,16.7905821 C51.84,13.3505821 55.17,11.3805821 58.1,12.3805821 C61.04,13.3805821 62.47,16.9805821 61.3,20.4105821 C61.3,20.4305821 61.29,20.4405821 61.28,20.4605821 C62.65,20.8705821 64.02,21.3105821 65.37,21.8005821 C65.43,21.6105821 65.49,21.4205821 65.57,21.2305821 C66.61,18.7705821 69.2,17.5105821 71.37,18.4205821 C73.54,19.3305821 74.46,22.0705821 73.42,24.5305821 C73.35,24.7105821 73.26,24.8705821 73.17,25.0405821 C74.42,25.6405821 75.66,26.2705821 76.88,26.9405821 C76.94,26.7805821 77.02,26.6205821 77.11,26.4705821 C78.01,24.9605821 79.78,24.3505821 81.06,25.1105821 C82.34,25.8705821 82.65,27.7205821 81.75,29.2305821 C81.66,29.3805821 81.57,29.5105821 81.46,29.6305821 C81.87,29.8905821 82.29,30.1505821 82.7,30.4205821 L88.76,13.7705821 C74.07,8.87058208 58.25,8.33058208 43.32,12.1405821 L43.33,12.1505821 Z" id="形状"></path>
                    <g transform="translate(14, 4.8237)" id="路径">
                        <path d="M5.79,13.8269308 C5.65,13.0969308 5.83,12.3969308 6.21,11.8769308 C4.1,13.1269308 2.03,14.4669308 0,15.9169308 C1.96,15.3069308 3.95,14.7769308 5.94,14.3269308 C5.87,14.1669308 5.81,13.9969308 5.78,13.8269308 L5.79,13.8269308 Z"></path>
                        <path d="M76.48,4.25693076 C53.81,-3.17306924 28.66,-0.873069238 7.52,11.1269308 C8.57,11.0169308 9.58,11.8369308 9.82,13.0369308 C9.85,13.2069308 9.86,13.3769308 9.86,13.5369308 C11.27,13.2869308 12.68,13.0669308 14.1,12.8969308 C14.06,12.7369308 14.03,12.5769308 14.01,12.3969308 C13.84,10.6469308 14.9,9.10693076 16.38,8.95693076 C17.5,8.84693076 18.54,9.57693076 19.06,10.6969308 C20.97,9.91693076 22.91,9.21693076 24.87,8.59693076 C25.69,7.61693076 26.87,7.01693076 28.15,7.07693076 C28.57,7.09693076 28.96,7.18693076 29.34,7.32693076 C44.28,3.50693076 60.1,4.04693076 74.78,8.95693076 L76.49,4.25693076 L76.48,4.25693076 Z"></path>
                    </g>
                    <path d="M0,26.5705821 C4.51,24.1705821 9.21,22.2305821 14.01,20.7505821 C16.03,19.3005821 18.1,17.9605821 20.22,16.7105821 C20.5,16.3405821 20.89,16.0605821 21.36,15.9705821 C21.42,15.9605821 21.47,15.9705821 21.53,15.9605821 C42.67,3.96058208 67.82,1.66058208 90.49,9.09058208 L92.2,4.39058208 C60.79,-5.73941792 24.96,1.66058208 0.01,26.5805821 L0,26.5705821 Z" id="路径"></path>
                    <path d="M88.77,13.7805821 L82.71,30.4305821 C83.48,30.9405821 84.24,31.4705821 85,32.0005821 C85.07,31.8505821 85.16,31.7005821 85.26,31.5605821 C86.04,30.5305821 87.4,30.2505821 88.31,30.9405821 C89.22,31.6205821 89.32,33.0105821 88.54,34.0405821 C88.44,34.1705821 88.33,34.2905821 88.21,34.3905821 C89.93,35.7505821 91.62,37.1805821 93.25,38.6905821 L104.52,21.0105821 C99.5,18.0005821 94.21,15.5905821 88.78,13.7705821 L88.77,13.7805821 Z" id="路径"></path>
                    <g transform="translate(6.89, 60.9206)">
                        <path d="M29.41,15.13 C32.55,11.34 34.05,6.98 36.1,0.4 L32.15,0.4 C31.51,2.44 30.97,4.12 30.46,5.57 L27.66,4.42 L26.51,8.06 C27.28,8.31 28.36,8.39 29.44,8.27 C28.47,10.64 27.44,12.57 25.87,15.12 L29.41,15.12 L29.41,15.13 Z" id="路径"></path>
                        <path d="M67.92,6.9 L69.86,6.9 C71.09,6.16 72.13,5.34 73.04,4.23 L74.85,4.23 C75.08,5.06 75.02,5.86 74.72,6.9 L78.36,6.9 C78.54,5.81 78.28,4.82 77.82,4.23 L83.09,4.23 L83.85,1.79 L74.59,1.79 C74.86,1.25 75.12,0.66 75.37,0.01 L71.98,0.01 C71.98,0.01 70.89,3.15 68.24,5.87 L70.07,0.01 L66.79,0.01 L62.08,15.13 L65.36,15.13 L67.92,6.9 L67.92,6.9 Z" id="路径"></path>
                        <path d="M18.19,15.13 L22.02,15.13 L22.97,12.07 L20.51,12.93 L22.27,7.29 C22.55,6.39 22.05,5.65 21.14,5.65 L13.8,5.65 C12.32,10.39 11.12,12.43 8.54,15.13 L11.2,15.13 C13.89,13.26 15.46,11.05 16.66,8.09 L18.75,8.09 L17.07,13.49 C16.79,14.39 17.29,15.13 18.2,15.13 L18.19,15.13 Z" id="路径"></path>
                        <polygon id="路径" points="61.39 2.49 58.23 12.64 61.51 12.64 64.67 2.49"></polygon>
                        <polygon id="路径" points="107.06 0.33 88.13 0.33 87.37 2.77 94.86 2.77 93.08 8.49 84.21 8.49 83.45 10.93 92.32 10.93 91.06 14.98 95.01 14.98 96.27 10.93 105.15 10.93 105.91 8.49 97.03 8.49 98.81 2.77 106.3 2.77"></polygon>
                        <path d="M25.79,1.62 L21.08,1.62 C21.23,1.04 21.32,0.48 21.33,0 L17.68,0.02 C17.89,0.52 17.98,1.06 17.99,1.62 L13.51,1.62 L12.75,4.06 L25.02,4.06 L25.78,1.62 L25.79,1.62 Z" id="路径"></path>
                        <path d="M68.85,7.98 L66.72,14.8 L79.43,14.8 L81.22,9.07 C81.41,8.47 81.07,7.98 80.47,7.98 L68.85,7.98 Z M70.76,12.36 L71.37,10.41 L72.81,10.41 L72.2,12.36 L70.76,12.36 Z M75.48,12.36 L76.09,10.41 L77.53,10.41 L76.92,12.36 L75.48,12.36 Z" id="形状"></path>
                        <path d="M91.59,7.39 C91.71,6.06 91.27,4.6 90.46,3.79 L88.1,3.79 C88.34,4.87 88.25,6.17 87.96,7.39 L91.59,7.39 Z" id="路径"></path>
                        <path d="M101.56,7.39 C102.88,6.58 104.23,5.12 104.94,3.79 L101.31,3.79 C100.83,5.01 100.12,6.31 99.2,7.39 L101.56,7.39 Z" id="路径"></path>
                        <path d="M4.32,9.51 L2.57,15.13 L5.85,15.13 L7.75,9.05 C8.66,9.45 9.56,10.25 10.23,11.17 L11.38,7.53 C10.63,7.07 9.56,6.72 8.5,6.62 L8.91,5.29 L11.25,5.29 L12.01,2.85 L9.67,2.85 L10.45,0.34 L7.17,0.34 L6.39,2.85 L3.27,2.85 L2.51,5.29 L5.62,5.29 C4.77,6.83 2.81,8.39 1.34,8.97 L-4.54747351e-13,13.2 C1.18,12.74 3.26,10.9 4.31,9.52 L4.32,9.51 Z M5.64,5.28 L5.55,5.55 L5.63,5.28 L5.63,5.28 L5.64,5.28 Z" id="形状"></path>
                        <path d="M35.76,4.42 L34.61,8.06 C35.34,8.3 36.36,8.38 37.38,8.29 L35.47,14.43 L39.42,14.43 L43.7,0.69 L39.75,0.69 L38.27,5.44 L35.76,4.41 L35.76,4.42 Z" id="路径"></path>
                        <path d="M43.53,4.42 L42.38,8.06 C43.02,8.27 43.87,8.36 44.76,8.31 L42.65,15.08 L46.6,15.08 L51.2,0.33 L47.25,0.33 L45.7,5.31 L43.53,4.42 L43.53,4.42 Z" id="路径"></path>
                        <path d="M56.32,7.57 C56.61,6.64 56.09,5.89 55.16,5.89 C54.23,5.89 53.24,6.64 52.95,7.57 C52.66,8.5 53.18,9.25 54.11,9.25 C55.04,9.25 56.03,8.5 56.32,7.57 Z" id="路径"></path>
                        <polygon id="路径" points="67.21 19.26 66.16 19.26 64.21 25.52 67.97 25.52 68.27 24.56 65.56 24.56"></polygon>
                        <polygon id="路径" points="69.7 25.52 70.75 25.52 72.7 19.26 71.65 19.26"></polygon>
                        <polygon id="路径" points="78.05 23.76 76.1 19.26 75.06 19.26 73.11 25.52 74.17 25.52 75.57 21.03 77.5 25.52 78.54 25.52 80.49 19.26 79.45 19.26"></polygon>
                        <path d="M85.35,19.26 L82.86,19.26 L80.91,25.52 L81.96,25.52 L82.55,23.63 L83.99,23.63 C85.56,23.63 86.72,22.81 87.16,21.39 C87.58,20.03 86.92,19.25 85.35,19.25 L85.35,19.26 Z M86.15,21.43 C85.89,22.28 85.21,22.69 84.25,22.69 L82.86,22.69 L83.63,20.21 L85.02,20.21 C85.99,20.21 86.41,20.6 86.15,21.43 Z" id="形状"></path>
                        <polygon id="路径" points="87.64 25.52 88.7 25.52 90.65 19.26 89.59 19.26"></polygon>
                        <polygon id="路径" points="96 23.76 94.05 19.26 93.01 19.26 91.06 25.52 92.11 25.52 93.51 21.03 95.45 25.52 96.48 25.52 98.43 19.26 97.4 19.26"></polygon>
                        <path d="M103.36,20.17 C104.01,20.17 104.6,20.44 104.94,20.89 L105.78,20.11 C105.33,19.57 104.54,19.23 103.65,19.23 C101.76,19.23 99.87,20.6 99.31,22.39 C98.75,24.18 99.76,25.56 101.61,25.56 C102.47,25.56 103.51,25.23 104.29,24.75 L105.01,22.44 L104.09,22.44 L103.55,24.18 C103.02,24.45 102.44,24.61 101.98,24.61 C100.7,24.61 100,23.63 100.39,22.38 C100.78,21.14 102.08,20.16 103.36,20.16 L103.36,20.17 Z" id="路径"></path>
                        <polygon id="路径" points="6.97 19.26 6.13 21.98 2.81 21.98 3.66 19.26 2.6 19.26 0.65 25.52 1.71 25.52 2.52 22.93 5.83 22.93 5.02 25.52 6.08 25.52 8.03 19.26"></polygon>
                        <path d="M12.34,19.26 L7.63,25.52 L8.73,25.52 L9.77,24.11 L12.92,24.11 L13.08,25.52 L14.21,25.52 L13.43,19.26 L12.35,19.26 L12.34,19.26 Z M10.45,23.17 L12.5,20.39 L12.81,23.17 L10.45,23.17 Z" id="形状"></path>
                        <polygon id="路径" points="20.69 23.76 18.74 19.26 17.71 19.26 15.75 25.52 16.81 25.52 18.21 21.03 20.14 25.52 21.18 25.52 23.13 19.26 22.09 19.26"></polygon>
                        <path d="M28.25,24.19 C27.72,24.46 27.14,24.62 26.68,24.62 C25.4,24.62 24.7,23.64 25.09,22.39 C25.48,21.15 26.78,20.17 28.06,20.17 C28.71,20.17 29.3,20.44 29.64,20.89 L30.48,20.11 C30.03,19.57 29.24,19.23 28.35,19.23 C26.46,19.23 24.57,20.6 24.01,22.39 C23.45,24.18 24.46,25.56 26.31,25.56 C27.17,25.56 28.21,25.23 29,24.75 L29.72,22.44 L28.8,22.44 L28.26,24.18 L28.25,24.19 Z" id="路径"></path>
                        <polygon id="路径" points="37.66 19.26 32.54 19.26 32.24 20.21 35.94 20.21 30.71 24.76 30.47 25.52 35.75 25.52 36.05 24.57 32.2 24.57 37.42 20.02"></polygon>
                        <polygon id="路径" points="43.11 21.98 39.79 21.98 40.64 19.26 39.59 19.26 37.63 25.52 38.69 25.52 39.5 22.93 42.81 22.93 42.01 25.52 43.06 25.52 45.01 19.26 43.96 19.26"></polygon>
                        <path d="M50.18,19.23 C48.31,19.23 46.44,20.59 45.88,22.39 C45.32,24.18 46.34,25.56 48.21,25.56 C50.08,25.56 51.96,24.17 52.51,22.39 C53.07,20.6 52.05,19.23 50.18,19.23 Z M51.43,22.39 C51.04,23.63 49.74,24.62 48.51,24.62 C47.28,24.62 46.56,23.64 46.95,22.39 C47.34,21.15 48.66,20.18 49.89,20.18 C51.12,20.18 51.81,21.15 51.43,22.39 Z" id="形状"></path>
                        <path d="M58.45,22.93 C58.12,23.99 57.29,24.62 56.27,24.62 C55.25,24.62 54.79,23.98 55.12,22.93 L56.26,19.26 L55.21,19.26 L54.07,22.93 C53.56,24.57 54.28,25.57 55.97,25.57 C57.66,25.57 59,24.57 59.51,22.93 L60.65,19.26 L59.6,19.26 L58.46,22.93 L58.45,22.93 Z" id="路径"></path>
                    </g>
                    <path d="M95.11,41.3405821 C69.47,15.7005821 30.86,10.9405821 0.4,27.0605821 L21.39,48.0505821 C31.69,37.7505821 45.93,31.3805821 61.65,31.3805821 C75.65,31.3805821 88.46,36.4405821 98.38,44.8205821 C97.33,43.6405821 96.24,42.4805821 95.11,41.3505821 L95.11,41.3405821 Z M23.09,20.1305821 C22.49,20.2405821 21.88,20.3405821 21.28,20.4605821 C21.05,20.3805821 20.84,20.2605821 20.64,20.1005821 C21.61,19.9005821 22.58,19.7205821 23.56,19.5605821 C23.44,19.7805821 23.27,19.9705821 23.09,20.1305821 L23.09,20.1305821 Z M31,20.1305821 C30.5,20.1805821 30.01,20.0505821 29.58,19.8005821 C29.7,19.8005821 29.82,19.7805821 29.93,19.7705821 C30.68,19.7105821 31.44,19.6705821 32.2,19.6305821 C31.85,19.9005821 31.45,20.0805821 31,20.1305821 Z M32.81,19.0105821 C31.83,19.0605821 30.86,19.1305821 29.89,19.2205821 C29.58,19.2505821 29.27,19.2905821 28.96,19.3205821 C28.84,19.1905821 28.72,19.0605821 28.62,18.9005821 C29.03,18.8605821 29.43,18.8105821 29.84,18.7705821 C30.91,18.6905821 31.99,18.6205821 33.06,18.5705821 C32.99,18.7205821 32.91,18.8705821 32.81,19.0105821 L32.81,19.0105821 Z M41.73,21.5805821 C40.81,21.5405821 39.98,21.1705821 39.31,20.5805821 C40.9,20.6405821 42.49,20.7505821 44.07,20.9005821 C43.38,21.3605821 42.58,21.6205821 41.73,21.5805821 Z M44.6,20.4805821 C42.7,20.3005821 40.78,20.1905821 38.87,20.1405821 C38.71,19.9505821 38.56,19.7505821 38.43,19.5305821 C40.66,19.5705821 42.89,19.7005821 45.12,19.9105821 C44.96,20.1105821 44.79,20.3005821 44.6,20.4705821 L44.6,20.4805821 Z M45.54,19.2905821 C43.07,19.0505821 40.59,18.9205821 38.11,18.9005821 C38.05,18.7605821 37.99,18.6105821 37.94,18.4605821 C39.18,18.4605821 40.43,18.4905821 41.67,18.5605821 C43.03,18.6305821 44.39,18.7405821 45.74,18.8805821 C45.68,19.0205821 45.61,19.1605821 45.53,19.3005821 L45.54,19.2905821 Z M53.88,24.8305821 C52.95,24.5105821 52.18,23.9405821 51.58,23.1905821 C52.34,23.3305821 53.1,23.4805821 53.86,23.6405821 C55.17,23.9105821 56.46,24.2205821 57.76,24.5505821 C56.53,25.1305821 55.17,25.2705821 53.88,24.8305821 Z M58.18,24.3305821 C56.77,23.9605821 55.36,23.6105821 53.93,23.3105821 C53.06,23.1305821 52.18,22.9605821 51.3,22.8005821 C51.09,22.4805821 50.91,22.1405821 50.76,21.7805821 C51.77,21.9605821 52.78,22.1505821 53.78,22.3605821 C55.59,22.7205821 57.39,23.1505821 59.17,23.6305821 C58.86,23.9005821 58.52,24.1305821 58.18,24.3305821 L58.18,24.3305821 Z M59.59,23.2305821 C57.7,22.7005821 55.8,22.2405821 53.88,21.8405821 C52.78,21.6105821 51.67,21.4205821 50.56,21.2305821 C50.5,21.0205821 50.44,20.8105821 50.4,20.5905821 C51.46,20.7605821 52.53,20.9605821 53.58,21.1705821 C55.75,21.5905821 57.9,22.1105821 60.03,22.7105821 C59.89,22.8905821 59.74,23.0505821 59.58,23.2105821 L59.59,23.2305821 Z M60.47,22.1505821 C58.25,21.5005821 56,20.9405821 53.73,20.4905821 C52.59,20.2605821 51.45,20.0705821 50.31,19.8905821 C50.3,19.7505821 50.29,19.6005821 50.28,19.4505821 C51.32,19.6205821 52.36,19.8005821 53.4,20.0105821 C55.86,20.4705821 58.3,21.0605821 60.71,21.7605821 C60.63,21.8905821 60.56,22.0205821 60.47,22.1505821 Z M67.63,27.3505821 C66.83,27.0105821 66.2,26.4305821 65.78,25.7005821 C67.3,26.2505821 68.8,26.8405821 70.28,27.4705821 C69.41,27.7305821 68.49,27.7105821 67.63,27.3505821 Z M70.84,27.2605821 C69.09,26.4805821 67.3,25.7705821 65.5,25.1205821 C65.41,24.8805821 65.33,24.6405821 65.27,24.3905821 C67.38,25.1405821 69.46,25.9805821 71.5,26.9005821 C71.29,27.0405821 71.07,27.1605821 70.84,27.2705821 L70.84,27.2605821 Z M72.05,26.4805821 C69.8,25.4405821 67.51,24.4905821 65.17,23.6505821 C65.16,23.4905821 65.16,23.3305821 65.17,23.1705821 C67.63,24.0305821 70.04,25.0405821 72.41,26.1405821 C72.3,26.2605821 72.18,26.3705821 72.06,26.4805821 L72.05,26.4805821 Z M77.82,30.5905821 C77.4,30.3405821 77.1,29.9705821 76.9,29.5405821 C77.72,29.9805821 78.54,30.4305821 79.35,30.8905821 C78.82,30.9505821 78.29,30.8605821 77.83,30.5905821 L77.82,30.5905821 Z M80.02,30.7305821 C78.91,30.0605821 77.79,29.4105821 76.66,28.7905821 C76.63,28.6105821 76.62,28.4205821 76.62,28.2205821 C77.96,28.9205821 79.28,29.6605821 80.57,30.4405821 C80.39,30.5505821 80.21,30.6505821 80.02,30.7205821 L80.02,30.7305821 Z M86.42,35.0205821 C85.93,34.6605821 85.43,34.3105821 84.93,33.9505821 C84.82,33.7005821 84.76,33.4305821 84.75,33.1505821 C85.11,33.4005821 85.47,33.6305821 85.82,33.8805821 C86.31,34.2205821 86.79,34.5805821 87.27,34.9305821 C86.99,35.0205821 86.7,35.0505821 86.42,35.0205821 L86.42,35.0205821 Z" id="形状"></path>
                </g>
                <g transform="translate(182.46, 0)">
                    <path d="M57.51,53.5440829 L57.51,51.5240829 C57.68,51.5240829 57.82,51.5040829 57.96,51.5040829 C62.1,51.5040829 66.23,51.5040829 70.37,51.5040829 C75.98,51.5040829 81.59,51.5040829 87.21,51.4940829 C88.63,51.4940829 90.05,51.4940829 91.46,51.3640829 C95.05,51.0040829 98.05,48.1540829 98.72,44.5440829 C99.31,41.3640829 98.62,38.5140829 96.3,36.1940829 C94.62,34.5140829 92.51,33.6940829 90.14,33.7240829 C89.21,33.7340829 88.29,34.0340829 87.37,34.2340829 C87.11,34.2940829 86.94,34.2640829 86.75,34.0640829 C86.03,33.3240829 85.3,32.5940829 84.55,31.8840829 C84.3,31.6540829 84.25,31.4440829 84.34,31.1140829 C84.75,29.5640829 84.99,27.9940829 84.55,26.4040829 C83.67,23.2440829 81.16,20.1640829 77.06,19.6440829 C75.75,19.4740829 74.4,19.4640829 73.18,20.0140829 C72.58,20.2840829 72.1,20.2240829 71.57,20.0340829 C69.94,19.4640829 68.33,18.8740829 66.7,18.3040829 C66.41,18.2040829 66.28,18.0340829 66.2,17.7140829 C64.78,12.2840829 61.64,8.38408295 56.12,6.80408295 C49.08,4.79408295 41.65,8.76408295 39.31,15.7140829 C38.83,17.1440829 38.67,18.6540829 38.63,20.1640829 C38.62,20.5440829 38.63,20.9240829 38.63,21.3440829 C32.38,17.0640829 25.83,16.2840829 19.03,19.7040829 C14.19,22.1340829 11.09,26.1340829 9.71,31.3740829 C7,41.6640829 13.78,52.1540829 24.3,53.9640829 C35.03,55.8140829 44.21,48.1540829 45.53,38.6140829 C44.23,38.9440829 42.96,39.2740829 41.6,39.6140829 C42.8,35.2940829 43.98,31.0340829 45.18,26.6840829 C48.34,29.8940829 51.44,33.0540829 54.6,36.2540829 C53.51,36.5340829 52.49,36.8040829 51.46,37.0540829 C51.13,37.1340829 50.96,37.2440829 50.93,37.6440829 C50.49,43.1640829 48.42,47.9840829 44.62,52.0140829 C40.87,56.0040829 36.28,58.4240829 30.85,59.2040829 C18.79,60.9440829 7.46,53.3840829 4.57,41.5640829 C1.39,28.5940829 9.38,16.1040829 21.79,13.0340829 C25.52,12.1140829 29.26,12.1140829 33,13.0140829 C33.62,13.1640829 33.62,13.1640829 33.87,12.5640829 C35.81,7.96408295 38.97,4.47408295 43.41,2.20408295 C50.76,-1.55591705 59.34,-0.43591705 65.62,5.03408295 C68.28,7.35408295 70.2,10.1740829 71.34,13.5140829 C71.38,13.6340829 71.43,13.7540829 71.49,13.9140829 C72.27,13.7640829 73.03,13.5640829 73.79,13.4640829 C78.29,12.8440829 82.28,14.0340829 85.7,16.9940829 C88.52,19.4340829 90.17,22.5440829 90.66,26.2540829 C90.82,27.4640829 90.84,27.4640829 91.8,27.5740829 C94.92,27.9140829 97.65,29.1140829 100.01,31.1840829 C102.76,33.5940829 104.4,36.6240829 104.92,40.2340829 C105.57,44.7640829 104.52,48.8740829 101.59,52.3940829 C99.04,55.4640829 95.72,57.2240829 91.72,57.6040829 C90.85,57.6840829 89.98,57.7040829 89.11,57.7140829 C79.38,57.7140829 69.64,57.7140829 59.91,57.7140829 L57.51,57.7140829 L57.51,55.6440829 L57.5,55.6440829 C58.17,55.6540829 58.84,55.6540829 59.54,55.6540829 L59.54,53.5140829 L57.5,53.5140829 L57.51,53.5140829 L57.51,53.5440829 Z" id="路径"></path>
                    <path d="M90.5,75.6940829 C90.42,76.2440829 90.35,76.7140829 90.28,77.2540829 L104.75,77.2540829 C104.64,78.0640829 104.54,78.8240829 104.44,79.5740829 C104.1,82.0240829 103.75,84.4740829 103.41,86.9340829 C103.27,87.9840829 102.48,88.8740829 101.42,88.9340829 C100.16,89.0040829 98.89,88.9540829 97.56,88.9540829 C97.63,88.4440829 97.7,87.9740829 97.76,87.4840829 C97.92,87.4840829 98.05,87.4640829 98.18,87.4640829 C98.92,87.4540829 99.14,87.2540829 99.24,86.5140829 C99.58,84.0440829 99.92,81.5840829 100.26,79.1140829 C100.27,79.0340829 100.27,78.9440829 100.28,78.8340829 C100.13,78.8340829 100,78.8140829 99.87,78.8140829 C96.74,78.8140829 93.61,78.8140829 90.48,78.8140829 C90.18,78.8140829 90.06,78.8740829 90.01,79.2140829 C89.58,82.4240829 89.12,85.6340829 88.66,88.8840829 L84.55,88.8840829 C84.76,87.3340829 84.98,85.7840829 85.19,84.2440829 C85.56,81.5840829 85.94,78.9340829 86.31,76.2740829 C86.58,74.3440829 86.84,72.4240829 87.12,70.4940829 C87.14,70.3840829 87.3,70.2840829 87.41,70.2140829 C87.46,70.1840829 87.55,70.2140829 87.63,70.2140829 C93.37,70.2140829 99.12,70.2140829 104.86,70.2140829 L105.32,70.2140829 C105.33,70.3140829 105.36,70.3840829 105.35,70.4440829 C105.2,71.5640829 105.06,72.6940829 104.87,73.8140829 C104.68,74.9840829 103.76,75.7340829 102.58,75.7340829 C98.74,75.7340829 94.9,75.7340829 91.06,75.7340829 L90.5,75.7340829 L90.5,75.6940829 Z M90.73,74.1040829 C90.82,74.1340829 90.84,74.1540829 90.87,74.1540829 C93.88,74.1540829 96.9,74.1740829 99.91,74.1440829 C100.13,74.1440829 100.49,73.8740829 100.55,73.6640829 C100.71,73.0440829 100.76,72.4040829 100.86,71.7140829 L95.14,71.7140829 C93.9,71.7140829 92.66,71.7140829 91.42,71.7140829 C91.29,71.7140829 91.07,71.8140829 91.05,71.9040829 C90.92,72.6240829 90.84,73.3540829 90.74,74.1040829 L90.73,74.1040829 Z" id="形状"></path>
                    <path d="M28.8,82.2340829 L21.64,82.2340829 C21.7,81.7740829 21.73,81.3440829 21.82,80.9340829 C21.85,80.8240829 22.09,80.7040829 22.23,80.6940829 C23.85,80.6740829 25.48,80.6840829 27.1,80.6840829 C27.63,80.6840829 28.16,80.7040829 28.69,80.6740829 C28.81,80.6740829 29.02,80.5240829 29.03,80.4140829 C29.44,77.5540829 29.84,74.6940829 30.23,71.8240829 C30.23,71.7940829 30.23,71.7640829 30.21,71.6840829 L23.34,71.6840829 C23.41,71.1340829 23.47,70.6440829 23.54,70.1340829 L42.25,70.1340829 C42.18,70.6340829 42.11,71.1240829 42.04,71.6640829 L35.09,71.6640829 C34.67,74.6740829 34.25,77.6440829 33.83,80.6740829 L41.01,80.6740829 C40.93,81.2140829 40.87,81.6840829 40.79,82.2240829 L40.26,82.2240829 C38.21,82.2240829 36.15,82.2240829 34.1,82.2240829 C33.74,82.2240829 33.6,82.2940829 33.55,82.6940829 C33.28,84.7840829 32.98,86.8640829 32.68,88.9740829 L27.86,88.9740829 C28.17,86.7340829 28.48,84.5240829 28.79,82.2340829 L28.8,82.2340829 Z" id="路径"></path>
                    <path d="M82,79.9740829 C81.86,80.9340829 81.77,81.8540829 81.57,82.7640829 C81.4,83.5440829 80.65,84.0240829 79.8,84.0240829 C76.51,84.0240829 73.21,84.0240829 69.92,84.0240829 L69.36,84.0240829 C69.32,84.2940829 69.29,84.5340829 69.25,84.8340829 L82.43,84.8340829 C82.36,85.3840829 82.3,85.8740829 82.23,86.3640829 C82.18,86.7440829 82.13,87.1240829 82.06,87.5040829 C81.91,88.2940829 81.19,88.9040829 80.4,88.9040829 C75.13,88.9040829 69.86,88.9040829 64.58,88.9040829 C64.49,88.9040829 64.41,88.8940829 64.27,88.8840829 C64.69,85.9040829 65.1,82.9540829 65.51,79.9740829 L82,79.9740829 L82,79.9740829 Z M77.97,86.4340829 L69.01,86.4340829 C68.97,86.7540829 68.94,87.0540829 68.9,87.3940829 L69.5,87.3940829 C72.03,87.3940829 74.55,87.3940829 77.08,87.3940829 C77.86,87.3940829 78,87.2540829 77.98,86.4340829 L77.97,86.4340829 Z M77.51,81.4840829 L70.58,81.4840829 C69.9933333,81.4840829 69.6633333,81.7707496 69.59,82.3440829 C69.59,82.3440829 69.61,82.3940829 69.64,82.4640829 L70.1,82.4640829 C72.3,82.4640829 74.5,82.4640829 76.7,82.4640829 C77.45,82.4640829 77.59,82.3140829 77.52,81.4840829 L77.51,81.4840829 Z" id="形状"></path>
                    <path d="M56.8,87.8040829 C56.71,87.9140829 56.69,87.9340829 56.68,87.9640829 C56.36,88.9140829 55.67,89.0940829 54.75,89.0040829 C53.92,88.9240829 53.08,88.9840829 52.16,88.9840829 C52.73,88.0540829 53.25,87.1940829 53.78,86.3340829 C54.28,85.5140829 54.8,84.7140829 55.28,83.8840829 C55.39,83.6940829 55.42,83.4040829 55.36,83.1940829 C55.06,82.1440829 54.76,81.0940829 54.39,80.0740829 C54.16,79.4240829 54.11,78.7940829 54.24,78.1240829 C54.32,77.7240829 54.37,77.3040829 54.44,76.8540829 L58.02,76.8540829 C58.02,77.6440829 57.61,78.4440829 58.14,79.2840829 C58.32,78.9540829 58.59,78.6740829 58.64,78.3640829 C58.89,76.8540829 59.08,75.3340829 59.29,73.8240829 C58.59,73.6240829 58.49,73.6740829 58.31,74.3240829 C58.16,74.8740829 58.02,75.4340829 57.85,75.9840829 C57.82,76.0940829 57.67,76.2340829 57.57,76.2340829 C56.5,76.2540829 55.42,76.2440829 54.28,76.2440829 C54.87,74.0340829 55.44,71.8740829 56.02,69.6940829 L59.54,69.6940829 C59.32,70.5240829 59.11,71.3240829 58.88,72.1940829 L63.35,72.1940829 C63.3,72.6240829 63.39,73.1440829 63.19,73.3440829 C62.64,73.8540829 62.78,74.4940829 62.65,75.0840829 C62.51,75.7040829 62.46,76.3340829 62.38,76.9640829 C62.29,77.6040829 62.21,78.2540829 62.1,78.8840829 C62.06,79.0940829 61.99,79.3140829 61.87,79.4940829 C61.12,80.7240829 60.36,81.9540829 59.59,83.1740829 C59.42,83.4440829 59.38,83.6740829 59.48,83.9840829 C60.01,85.6240829 60.51,87.2640829 61.03,88.9440829 L57.17,88.9440829 C57.05,88.5940829 56.92,88.2240829 56.77,87.7940829 L56.8,87.8040829 Z" id="路径"></path>
                    <path d="M19.75,79.6540829 C19.56,81.0540829 19.37,82.4040829 19.18,83.7640829 C19.04,84.7540829 18.9,85.7440829 18.77,86.7440829 C18.62,87.9040829 17.68,88.7940829 16.54,88.8040829 C13.5,88.8140829 10.46,88.8040829 7.42,88.8040829 C7.33,88.8040829 7.25,88.7940829 7.12,88.7840829 C7.27,87.6940829 7.41,86.6340829 7.56,85.5740829 C7.82,83.7240829 8.08,81.8640829 8.33,80.0140829 C8.36,79.7540829 8.42,79.6240829 8.73,79.6240829 C12.33,79.6240829 15.93,79.6240829 19.54,79.6240829 C19.6,79.6240829 19.65,79.6440829 19.76,79.6540829 L19.75,79.6540829 Z M11.35,81.2240829 C11.07,83.2340829 10.8,85.2240829 10.52,87.2240829 C10.68,87.2240829 10.77,87.2240829 10.86,87.2440829 C11.25,87.3040829 11.44,87.2040829 11.46,86.7440829 C11.51,86.0440829 11.65,85.3440829 11.75,84.6440829 C11.91,83.5140829 12.06,82.3740829 12.22,81.2140829 L11.35,81.2140829 L11.35,81.2240829 Z M15.48,81.2240829 C15.2,83.2240829 14.93,85.2040829 14.65,87.1940829 C15.25,87.2840829 15.52,87.1040829 15.6,86.5740829 C15.75,85.5840829 15.89,84.5940829 16.03,83.6040829 C16.14,82.8240829 16.24,82.0340829 16.35,81.2240829 L15.49,81.2240829 L15.48,81.2240829 Z" id="形状"></path>
                    <path d="M47.18,88.0640829 C47.05,88.1140829 47.02,88.1240829 47,88.1340829 C46.14,88.8940829 45.13,89.0840829 44.01,88.9840829 C43.31,88.9240829 42.6,88.9740829 41.86,88.9740829 C41.92,88.5240829 41.96,88.1140829 42.02,87.7140829 C42.04,87.6240829 42.13,87.5040829 42.21,87.4640829 C42.6,87.2740829 43.01,87.1440829 43.39,86.9340829 C43.83,86.6940829 44.23,86.4040829 44.68,86.1140829 C44.2,85.7240829 43.76,85.3440829 43.31,84.9940829 C43.09,84.8240829 43.03,84.6540829 43.08,84.3940829 C43.2,83.7040829 43.28,83.0040829 43.38,82.2740829 C43.18,82.2540829 43.01,82.2340829 42.79,82.2140829 C42.86,81.7340829 42.92,81.2640829 42.99,80.7640829 C43.19,80.7440829 43.38,80.7240829 43.58,80.7040829 C43.62,80.5140829 43.66,80.3240829 43.71,80.1140829 L47.21,80.1140829 C47.21,80.3040829 47.19,80.4840829 47.18,80.7140829 L53.55,80.7140829 C53.48,81.2540829 53.42,81.7340829 53.35,82.2140829 C53.11,82.2240829 52.9,82.2340829 52.64,82.2440829 C52.54,82.9240829 52.43,83.5940829 52.36,84.2740829 C52.33,84.5940829 52.22,84.8140829 51.93,84.9840829 C51.33,85.3440829 50.74,85.7340829 50.09,86.1640829 C50.86,86.5940829 51.28,87.4140829 52.24,87.4840829 C52.18,87.9540829 52.12,88.4340829 52.05,88.9640829 L50.77,88.9640829 C50.47,88.9640829 50.18,88.9540829 49.88,88.9640829 C48.85,89.0240829 47.83,89.0740829 47.18,88.0440829 L47.18,88.0640829 Z M47.73,84.1540829 C48.51,83.7740829 49.28,83.3840829 49.05,82.2740829 L46.98,82.2740829 C46.7,83.3740829 46.74,83.4640829 47.73,84.1540829 Z" id="形状"></path>
                    <path d="M6.36,88.9440829 L2.71,88.9440829 C3.6,82.5440829 4.49,76.1740829 5.38,69.7940829 L9.03,69.7940829 C8.14,76.1740829 7.25,82.5440829 6.36,88.9440829 Z" id="路径"></path>
                    <path d="M99.32,79.9840829 C99.08,81.7740829 98.85,83.5240829 98.59,85.2740829 C98.45,86.2340829 97.68,86.8640829 96.7,86.8640829 C94.53,86.8640829 92.36,86.8640829 90.19,86.8640829 L89.73,86.8640829 C90.05,84.5440829 90.37,82.2840829 90.69,79.9840829 L99.32,79.9840829 Z M93.42,85.5940829 C93.72,85.5940829 93.95,85.5940829 94.18,85.5940829 C94.84,85.5940829 95.08,85.3740829 95.17,84.7340829 C95.25,84.1240829 95.34,83.5140829 95.42,82.9040829 C95.49,82.3540829 95.56,81.8140829 95.63,81.2540829 L94.02,81.2540829 C93.82,82.6940829 93.62,84.1040829 93.41,85.6040829 L93.42,85.5940829 Z" id="形状"></path>
                    <path d="M78.75,79.1440829 C78.82,78.6440829 78.88,78.1740829 78.95,77.6440829 L78.51,77.6440829 C75.66,77.6440829 72.81,77.6440829 69.96,77.6440829 C69.62,77.6440829 69.45,77.6940829 69.44,78.0840829 C69.44,78.4340829 69.34,78.7840829 69.28,79.1540829 L64.49,79.1540829 C64.63,78.1140829 64.77,77.1040829 64.92,76.0640829 L71.98,76.0640829 C72.01,75.9940829 72.03,75.9540829 72.04,75.9140829 C72.16,75.4007496 72.4933333,75.1440829 73.04,75.1440829 C74.34,75.1440829 75.63,75.1440829 76.97,75.1440829 C76.94,75.4540829 76.92,75.7240829 76.89,76.0440829 L83.98,76.0440829 C83.83,77.1040829 83.69,78.1040829 83.55,79.1440829 L78.75,79.1440829 L78.75,79.1440829 Z" id="路径"></path>
                    <path d="M46.42,79.6540829 C46.64,78.0540829 46.85,76.5140829 47.08,74.9140829 L43.83,74.9140829 C43.89,74.4340829 43.93,74.0140829 44.02,73.6040829 C44.04,73.5040829 44.27,73.3840829 44.4,73.3840829 C45.2,73.3640829 45.99,73.3740829 46.79,73.3740829 L47.29,73.3740829 C47.47,72.1340829 47.63,70.9440829 47.81,69.7140829 L51.49,69.7140829 C51.33,70.9140829 51.17,72.1140829 51,73.3640829 L54.26,73.3640829 C54.19,73.8940829 54.13,74.3640829 54.07,74.8740829 L50.79,74.8740829 C50.64,75.9540829 50.49,76.9940829 50.34,78.0440829 C50.28,78.4940829 50.23,78.9540829 50.15,79.4040829 C50.13,79.4940829 50,79.6440829 49.92,79.6440829 C48.77,79.6640829 47.62,79.6540829 46.44,79.6540829 L46.42,79.6540829 Z" id="路径"></path>
                    <path d="M8.38,78.6240829 C9.44,75.6340829 10.48,72.7140829 11.52,69.7840829 L15.27,69.7840829 C14.99,70.5840829 14.71,71.3540829 14.42,72.1740829 L20.83,72.1740829 C20.76,72.7040829 20.69,73.1940829 20.62,73.7140829 L20.07,73.7140829 C18.15,73.7140829 16.23,73.7140829 14.31,73.7140829 C13.98,73.7140829 13.82,73.8140829 13.71,74.1340829 C13.24,75.5140829 12.74,76.8840829 12.27,78.2640829 C12.17,78.5540829 12.03,78.6440829 11.73,78.6340829 C10.64,78.6140829 9.55,78.6340829 8.38,78.6340829 L8.38,78.6240829 Z" id="路径"></path>
                    <path d="M65.07,74.7840829 C65.32,74.0140829 65.54,73.3340829 65.77,72.6540829 C66.05,71.8140829 66.33,70.9740829 66.63,70.1540829 C66.68,70.0240829 66.85,69.8440829 66.96,69.8440829 C68.21,69.8240829 69.47,69.8340829 70.77,69.8340829 C70.7,70.1140829 70.64,70.3640829 70.56,70.6540829 L75.22,70.6540829 C75.16,71.1140829 75.11,71.5340829 75.03,71.9540829 C75.01,72.0440829 74.88,72.1540829 74.78,72.1740829 C74.61,72.2140829 74.43,72.1740829 74.25,72.1740829 L74.25,74.7140829 L70.39,74.7140829 C70.35,73.8740829 70.32,73.0540829 70.28,72.2340829 C70.24,72.2040829 70.2,72.1840829 70.16,72.1540829 C70.07,72.2640829 69.94,72.3540829 69.9,72.4740829 C69.66,73.1340829 69.45,73.8140829 69.21,74.4740829 C69.16,74.5940829 69.02,74.7740829 68.92,74.7740829 C67.67,74.7940829 66.41,74.7840829 65.07,74.7840829 L65.07,74.7840829 Z" id="路径"></path>
                    <path d="M74.6,74.6840829 C74.9,73.7940829 75.21,72.9040829 75.51,72.0140829 C75.73,71.3740829 75.95,70.7340829 76.19,70.1040829 C76.23,69.9940829 76.37,69.8440829 76.47,69.8440829 C77.74,69.8240829 79,69.8340829 80.32,69.8340829 C80.24,70.1240829 80.18,70.3640829 80.1,70.6440829 L84.77,70.6440829 C84.71,71.1140829 84.68,71.5340829 84.59,71.9440829 C84.57,72.0440829 84.41,72.1440829 84.3,72.1740829 C84.15,72.2140829 83.99,72.1740829 83.81,72.1740829 L83.81,74.7140829 L79.89,74.7140829 L79.89,72.2040829 C79.83,72.1840829 79.77,72.1540829 79.71,72.1340829 C79.61,72.2540829 79.48,72.3640829 79.43,72.5040829 C79.2,73.1440829 79.01,73.7940829 78.77,74.4240829 C78.72,74.5540829 78.55,74.7240829 78.43,74.7240829 C77.21,74.7440829 75.98,74.7240829 74.76,74.7240829 C74.72,74.7240829 74.68,74.6940829 74.6,74.6740829 L74.6,74.6840829 Z" id="路径"></path>
                    <path d="M4.51,72.0940829 C3.83,76.9540829 3.16,81.7640829 2.49,86.5840829 L0,86.5840829 C0.16,85.4240829 0.32,84.2940829 0.48,83.1540829 C0.91,80.0440829 1.34,76.9440829 1.78,73.8340829 C1.84,73.3640829 1.89,72.8940829 1.98,72.4340829 C2,72.3140829 2.14,72.1140829 2.23,72.1140829 C2.98,72.0840829 3.73,72.1040829 4.52,72.1040829 L4.51,72.0940829 Z" id="路径"></path>
                    <polygon id="路径" points="23.56 72.8840829 28 72.8840829 28 79.4640829 23.56 79.4640829"></polygon>
                    <path d="M41.56,72.8640829 C40.92,75.0440829 40.3,77.1640829 39.67,79.2740829 C39.64,79.3740829 39.47,79.4940829 39.37,79.4940829 C37.98,79.5040829 36.6,79.4940829 35.15,79.4940829 C35.34,78.8440829 35.52,78.2240829 35.7,77.6140829 C36.14,76.1340829 36.57,74.6540829 37.02,73.1740829 C37.06,73.0440829 37.23,72.8740829 37.34,72.8740829 C38.72,72.8540829 40.11,72.8640829 41.56,72.8640829 L41.56,72.8640829 Z" id="路径"></path>
                    <path d="M53.34,55.6840829 L51.28,55.6840829 C51.28,55.0140829 51.27,54.4140829 51.29,53.8240829 C51.29,53.7340829 51.49,53.5940829 51.6,53.5940829 C52.16,53.5740829 52.72,53.5840829 53.32,53.5840829 L53.32,51.5540829 L55.41,51.5540829 L55.41,53.5540829 L57.51,53.5540829 L57.5,53.5540829 L57.5,55.6840829 L57.51,55.6840829 C56.84,55.6740829 56.16,55.6740829 55.45,55.6740829 L55.45,57.6840829 L53.33,57.6840829 C53.33,57.0240829 53.33,56.3540829 53.33,55.6740829 L55.44,55.6740829 C55.44,55.0140829 55.44,54.4140829 55.44,53.8140829 C55.44,53.7340829 55.32,53.5840829 55.25,53.5840829 C54.62,53.5640829 54,53.5740829 53.35,53.5740829 L53.35,55.6840829 L53.34,55.6840829 Z" id="路径"></path>
                    <path d="M18.07,74.5140829 C18.3,75.8640829 18.53,77.2240829 18.76,78.5940829 L15.09,78.5940829 C14.86,77.2340829 14.64,75.8940829 14.4,74.5140829 L18.06,74.5140829 L18.07,74.5140829 Z" id="路径"></path>
                    <path d="M50.74,79.6640829 C50.85,78.2040829 50.95,76.7940829 51.06,75.3740829 L53.7,75.3740829 C53.66,76.0040829 53.63,76.6240829 53.58,77.2540829 C53.53,77.9140829 53.46,78.5740829 53.44,79.2340829 C53.43,79.5440829 53.35,79.6840829 53.01,79.6740829 C52.28,79.6540829 51.54,79.6740829 50.75,79.6740829 L50.74,79.6640829 Z" id="路径"></path>
                    <path d="M44.04,75.3540829 L46.69,75.3540829 C46.39,76.7840829 46.09,78.1940829 45.79,79.6240829 L43.15,79.6240829 C43.45,78.1840829 43.74,76.7740829 44.03,75.3540829 L44.04,75.3540829 Z" id="路径"></path>
                    <path d="M51.4,72.9240829 C51.62,72.0040829 51.81,71.1540829 52.03,70.2940829 C52.05,70.1940829 52.19,70.0640829 52.28,70.0640829 C53.07,70.0440829 53.86,70.0540829 54.73,70.0540829 C54.55,70.8440829 54.38,71.5640829 54.21,72.2940829 C54.11,72.7140829 53.8466667,72.9240829 53.42,72.9240829 C52.76,72.9240829 52.1,72.9240829 51.4,72.9240829 L51.4,72.9240829 Z" id="路径"></path>
                    <polygon id="路径" points="44.45 72.8940829 44.45 70.0940829 47.08 70.0940829 47.08 72.8940829"></polygon>
                </g>
            </g>
        </g>
    </g>
</svg>