<?xml version="1.0" encoding="UTF-8"?>
<svg width="1191px" height="97px" viewBox="0 0 1191 97" version="1.1" xmlns="http://www.w3.org/2000/svg" xmlns:xlink="http://www.w3.org/1999/xlink">
    <title>编组</title>
    <g id="推介会素材" stroke="none" stroke-width="1" fill="none" fill-rule="evenodd">
        <g id="编组-8" transform="translate(-896.51, -226.72)" fill="#65C5DA" fill-rule="nonzero">
            <g id="编组" transform="translate(896.79, 227.04)">
                <path d="M77.16,81.27 L67.98,96.24 L29.46,96.24 L26.48,93.17 L22.66,96.24 L0,96.24 L16.34,82.88 L7.4,73.66 L8.95,60.96 L4.54,60.96 L6.09,48.26 L10.5,48.26 L11.1,43.98 L26.96,43.98 L26.36,48.26 L37.69,48.26 L38.29,43.98 L54.15,43.98 L53.55,48.26 L58.2,48.26 L56.65,60.96 L52,60.96 L50.45,73.66 L39.12,82.88 L50.69,94.91 L69.53,64.17 L59.15,40.65 L77.28,40.65 L80.14,47.07 L84.08,40.65 L84.08,40.52 L86.23,22.88 L81.94,22.88 L77.89,35.58 L59.76,35.58 L70.02,3.11 L67.75,0.04 L89.22,0.04 L86,10.2 L109.37,10.2 L107.82,22.9 L104.36,22.9 L102.21,40.54 L87.66,64.19 L101.97,96.26 L83.84,96.26 L77.16,81.29 L77.16,81.27 Z M15.39,27.94 L8.59,27.94 L10.26,15.24 L28.39,15.24 L29.7,4.95 L27.67,0.01 L46.15,0.01 L44.24,15.24 L62.37,15.24 L60.7,27.94 L53.31,27.94 L58.8,43.17 L45.21,43.17 L41.87,33.95 L40.68,43.17 L24.82,43.17 L26.13,33.01 L20.29,43.17 L6.69,43.17 L15.4,27.94 L15.39,27.94 Z M26.36,12.71 L12.76,12.71 L11.81,2.55 L25.41,2.55 L26.36,12.71 Z M35.42,67.37 L36.13,60.95 L24.8,60.95 L24.08,67.37 L29.09,72.58 L35.41,67.37 L35.42,67.37 Z M50.33,2.55 L63.92,2.55 L60.34,12.71 L46.75,12.71 L50.33,2.55 Z" id="形状"></path>
                <path d="M129.99,16.32 L131.54,4.16 L128.56,0.28 L150.62,0.28 L148.59,16.32 L153.96,16.32 L152.41,28.08 L147.16,28.08 L145.13,44.25 L150.26,42.51 L148.47,56.41 L143.34,58.15 L139.76,87.28 C139.44,89.87 138.41,91.98 136.66,93.63 C134.91,95.28 132.88,96.1 130.58,96.1 L112.33,96.1 L121.51,84.07 L123.89,64.83 L116.62,67.24 L118.41,53.21 L125.68,50.8 L128.54,28.08 L121.38,28.08 L122.93,16.32 L129.97,16.32 L129.99,16.32 Z M171.25,33.82 L160.76,95.96 L143.59,95.96 L159.21,2.55 L221.22,2.55 L217.28,33.82 L171.25,33.82 Z M186.16,40.24 L186.76,36.1 L203.1,36.1 L202.5,40.24 L216.93,40.24 L215.5,52 L201.07,52 L200.12,59.35 L213.36,59.35 L209.07,93.7 L164.47,93.7 L168.76,59.35 L183.79,59.35 L184.74,52 L170.19,52 L171.62,40.24 L186.17,40.24 L186.16,40.24 Z M203.81,14.45 L175.43,14.45 L174.24,23.27 L202.62,23.27 L203.81,14.45 Z M195.58,82.74 L197.01,71.25 L182.7,71.25 L181.27,82.74 L195.58,82.74 Z" id="形状"></path>
                <path d="M235.89,88.88 L224.56,88.88 L231.24,63.49 L242.57,63.49 L235.89,88.88 Z M246.86,47.05 L247.34,43.17 L230.29,43.17 L231.96,30.47 L239.95,30.47 L238.52,22.85 L254.38,22.85 L255.81,30.47 L260.22,30.47 L263.56,22.85 L279.42,22.85 L276.08,30.47 L284.07,30.47 L282.4,43.17 L265.47,43.17 L264.99,47.05 L279.66,47.05 L278.11,59.75 L263.44,59.75 L259.98,87.41 C259.58,90 258.49,92.11 256.7,93.76 C254.91,95.41 252.86,96.23 250.56,96.23 L234.94,96.23 L241.62,88.61 L245.32,59.74 L230.53,59.74 L232.08,47.04 L246.87,47.04 L246.86,47.05 Z M251.87,7.63 L252.35,3.89 L249.37,0.01 L270.95,0.01 L270,7.63 L284.67,7.63 L283,20.33 L235.42,20.33 L237.09,7.63 L251.88,7.63 L251.87,7.63 Z M265.11,63.49 L276.44,63.49 L276.68,88.88 L265.35,88.88 L265.11,63.49 Z M290.39,7.63 L333.2,0.01 L331.53,12.71 L306.13,17.25 L304.46,30.48 L331.65,30.48 L329.98,43.18 L325.45,43.18 L318.77,96.24 L301.72,96.24 L308.4,43.18 L302.8,43.18 L296.12,96.24 L279.19,96.24 L290.4,7.64 L290.39,7.63 Z" id="形状"></path>
                <path d="M437.43,52 L433.02,87.41 C432.62,90 431.53,92.11 429.74,93.76 C427.95,95.41 425.94,96.23 423.72,96.23 L402.37,96.23 L410.48,86.34 L413.46,62.15 L363.61,62.15 L359.32,96.23 L336.66,96.23 L342.26,51.99 L437.43,51.99 L437.43,52 Z M384,7.63 L384.36,5.09 L380.54,0.01 L407.73,0.01 L406.66,7.63 L445.3,7.63 L443.63,20.33 L343.93,20.33 L345.6,7.63 L384,7.63 Z M428.37,24.2 L425.39,48.26 L355.15,48.26 L358.13,24.2 L428.37,24.2 Z M407.38,66.03 L404.76,87.55 L366.12,87.55 L368.74,66.03 L407.38,66.03 Z M404.04,38.1 L404.52,34.22 L379.72,34.22 L379.24,38.1 L404.05,38.1 L404.04,38.1 Z M391.04,78.73 L391.52,74.85 L382.46,74.85 L381.98,78.73 L391.04,78.73 Z" id="形状"></path>
                <path d="M502.9,7.63 L503.26,5.09 L499.44,0.01 L526.63,0.01 L525.68,7.63 L557.4,7.63 L555.73,20.33 L482.63,20.33 L469.15,96.24 L448.76,96.24 L463.67,12.45 L459.97,7.64 L502.9,7.64 L502.9,7.63 Z M496.34,81.13 L479.52,68.57 L479.76,66.03 L481.19,54.67 L549.17,54.67 L547.5,68.57 L527.35,81.13 L548.46,96.23 L516.74,96.23 L510.54,91.69 L503.15,96.23 L471.43,96.23 L496.35,81.13 L496.34,81.13 Z M550.96,22.87 L550.48,26.61 L555.01,26.61 L553.7,36.77 L549.17,36.77 L547.38,50.8 L483.94,50.8 L485.73,36.77 L481.2,36.77 L482.51,26.61 L487.04,26.61 L487.52,22.87 L510.18,22.87 L509.7,26.61 L527.83,26.61 L528.31,22.87 L550.97,22.87 L550.96,22.87 Z M506.24,66.03 L513.16,70.98 L521.27,66.03 L506.24,66.03 Z M526.04,40.64 L526.52,36.76 L508.39,36.76 L507.91,40.64 L526.04,40.64 Z" id="形状"></path>
                <path d="M734.61,25.4 L729.36,67.23 L722.56,67.23 L721.84,72.31 L735.55,72.31 L734.12,83.8 L720.41,83.8 L718.86,96.23 L696.2,96.23 L697.75,83.8 L667.58,83.8 L662.21,96.23 L639.55,96.23 L644.92,83.8 L634.43,83.8 L635.86,72.31 L649.93,72.31 L652.2,67.23 L643.26,67.23 L648.51,25.4 L734.61,25.4 L734.61,25.4 Z M671.76,5.09 L694.06,5.09 L692.87,15.25 L683.81,15.25 L687.39,22.87 L669.26,22.87 L666.04,16.05 L662.46,22.87 L642.07,22.87 L652.09,3.49 L649.47,0.02 L674.39,0.02 L671.77,5.1 L671.76,5.09 Z M710.04,58.41 L710.52,54.53 L665.2,54.53 L664.72,58.41 L710.04,58.41 Z M666.04,48.26 L711.36,48.26 L711.84,44.38 L666.52,44.38 L666.04,48.26 Z M667.35,38.1 L712.67,38.1 L713.15,34.22 L667.83,34.22 L667.35,38.1 Z M672.6,72.31 L699.19,72.31 L699.91,67.23 L674.87,67.23 L672.6,72.31 Z M719.35,5.09 L743.92,5.09 L742.73,15.25 L731.4,15.25 L734.98,22.87 L716.85,22.87 L713.63,16.05 L710.05,22.87 L689.66,22.87 L699.68,3.49 L697.06,0.02 L721.98,0.02 L719.36,5.1 L719.35,5.09 Z" id="形状"></path>
                <path d="M809.03,20.33 L852.44,20.33 L844.09,87.42 C843.69,90.01 842.6,92.12 840.81,93.77 C839.02,95.42 837.01,96.24 834.79,96.24 L811.18,96.24 L821.91,83.81 L828.23,33.03 L802.95,33.03 L772.66,96.24 L750,96.24 L780.29,33.03 L755.72,33.03 L757.27,20.33 L786.37,20.33 L794.36,3.62 L791.62,0.01 L818.81,0.01 L809.03,20.32 L809.03,20.33 Z" id="路径"></path>
                <path d="M870.32,88.88 L858.99,88.88 L865.67,63.49 L877,63.49 L870.32,88.88 Z M881.29,47.05 L881.77,43.17 L864.72,43.17 L866.39,30.47 L874.38,30.47 L872.95,22.85 L888.81,22.85 L890.24,30.47 L894.65,30.47 L897.99,22.85 L913.85,22.85 L910.51,30.47 L918.5,30.47 L916.83,43.17 L899.9,43.17 L899.42,47.05 L914.09,47.05 L912.54,59.75 L897.87,59.75 L894.41,87.41 C894.01,90 892.92,92.11 891.13,93.76 C889.34,95.41 887.29,96.23 884.99,96.23 L869.37,96.23 L876.05,88.61 L879.75,59.74 L864.96,59.74 L866.51,47.04 L881.3,47.04 L881.29,47.05 Z M886.3,7.63 L886.78,3.89 L883.8,0.01 L905.39,0.01 L904.44,7.63 L919.11,7.63 L917.44,20.33 L869.86,20.33 L871.53,7.63 L886.32,7.63 L886.3,7.63 Z M899.54,63.49 L910.87,63.49 L911.11,88.88 L899.78,88.88 L899.54,63.49 Z M924.82,7.63 L967.63,0.01 L965.96,12.71 L940.56,17.25 L938.89,30.48 L966.08,30.48 L964.41,43.18 L959.88,43.18 L953.2,96.24 L936.15,96.24 L942.83,43.18 L937.23,43.18 L930.55,96.24 L913.62,96.24 L924.83,7.64 L924.82,7.63 Z" id="形状"></path>
                <polygon id="路径" points="1045.63 0.15 1044.08 12.04 1075.92 12.04 1074.37 24.74 1042.53 24.74 1041.1 36.23 1077.47 36.23 1075.8 49.19 1067.33 49.19 1072.82 90.35 1050.16 90.35 1044.67 49.19 1039.54 49.19 1033.7 95.96 1011.04 95.96 1016.88 49.19 1011.63 49.19 996.13 90.35 973.47 90.35 988.97 49.19 980.62 49.19 982.29 36.23 1018.42 36.23 1019.85 24.74 988.73 24.74 990.28 12.04 1021.52 12.04 1022.35 5.49 1018.89 0.14 1045.6 0.14"></polygon>
                <path d="M1084.5,93.96 L1110.62,55.87 L1090.58,55.87 L1092.13,43.17 L1129.34,43.17 L1132.32,20.32 L1098.33,20.32 L1100,7.62 L1133.87,7.62 L1134.23,5.08 L1130.41,0 L1157.6,0 L1156.65,7.62 L1190.64,7.62 L1188.97,20.32 L1154.98,20.32 L1152.12,43.17 L1189.45,43.17 L1187.9,55.87 L1167.86,55.87 L1184.2,93.96 L1161.54,93.96 L1149.26,65.5 L1145.44,96.24 L1122.78,96.24 L1126.6,65.64 L1107.16,93.97 L1084.5,93.97 L1084.5,93.96 Z M1103.94,39.44 L1101.32,24.2 L1123.98,24.2 L1126.6,39.44 L1103.94,39.44 Z M1157.13,39.44 L1162.38,24.2 L1185.04,24.2 L1179.79,39.44 L1157.13,39.44 Z" id="形状"></path>
            </g>
        </g>
    </g>
</svg>