<?xml version="1.0" encoding="UTF-8"?>
<!DOCTYPE svg PUBLIC "-//W3C//DTD SVG 1.1//EN" "http://www.w3.org/Graphics/SVG/1.1/DTD/svg11.dtd">
<svg xmlns="http://www.w3.org/2000/svg" version="1.1" width="1748px" height="344px" style="shape-rendering:geometricPrecision; text-rendering:geometricPrecision; image-rendering:optimizeQuality; fill-rule:evenodd; clip-rule:evenodd" xmlns:xlink="http://www.w3.org/1999/xlink">
<g><path style="opacity:0.99" fill="#007eff" d="M 41.5,-0.5 C 77.8333,-0.5 114.167,-0.5 150.5,-0.5C 186.426,7.27131 203.926,29.6046 203,66.5C 199.223,91.2767 185.557,107.943 162,116.5C 158.25,117.708 154.416,118.542 150.5,119C 114.168,119.5 77.8349,119.667 41.5,119.5C 41.5,79.5 41.5,39.5 41.5,-0.5 Z"/></g>
<g><path style="opacity:0.979" fill="#007fff" d="M -0.5,194.5 C -0.5,175.167 -0.5,155.833 -0.5,136.5C 48.8345,136.667 98.1678,136.5 147.5,136C 178.413,132.964 200.579,117.464 214,89.5C 224.328,62.4383 221.161,37.1049 204.5,13.5C 204.833,13.1667 205.167,12.8333 205.5,12.5C 246.071,39.3456 260.904,76.6789 250,124.5C 235.745,165.75 206.911,188.917 163.5,194C 108.834,194.5 54.1677,194.667 -0.5,194.5 Z"/></g>
<g><path style="opacity:0.981" fill="#007fff" d="M 212.5,343.5 C 141.5,343.5 70.5,343.5 -0.5,343.5C -0.5,324.167 -0.5,304.833 -0.5,285.5C 60.8342,285.667 122.168,285.5 183.5,285C 237.103,278.03 277.269,251.197 304,204.5C 331.71,145.569 326.377,89.9028 288,37.5C 282,30.1667 275.333,23.5 268,17.5C 267.333,16.8333 267.333,16.1667 268,15.5C 331.206,47.9565 364.372,99.9565 367.5,171.5C 365.839,233.671 339.506,282.171 288.5,317C 265.065,331.533 239.732,340.366 212.5,343.5 Z"/></g>
<g><path style="opacity:0.974" fill="#017fff" d="M -0.5,269.5 C -0.5,249.833 -0.5,230.167 -0.5,210.5C 56.501,210.667 113.501,210.5 170.5,210C 227.231,199.269 260.398,165.436 270,108.5C 272.59,73.9336 262.257,43.9336 239,18.5C 238.333,17.8333 238.333,17.1667 239,16.5C 286.97,47.6343 308.637,91.9676 304,149.5C 293.683,210.818 258.516,249.652 198.5,266C 189.258,267.828 179.925,268.828 170.5,269C 113.501,269.5 56.501,269.667 -0.5,269.5 Z"/></g>
<g><path style="opacity:0.965" fill="#007eff" d="M 1507.5,24.5 C 1519.5,24.3335 1531.5,24.5001 1543.5,25C 1540.17,30.6667 1536.83,36.3333 1533.5,42C 1560.17,42.1668 1586.84,42.6668 1613.5,43.5C 1612.5,50.8333 1611.5,58.1667 1610.5,65.5C 1596.83,66.1667 1583.17,66.8333 1569.5,67.5C 1573.03,75.4189 1576.36,83.4189 1579.5,91.5C 1569.18,92.6656 1558.85,92.8323 1548.5,92C 1545,83.6703 1542,75.1703 1539.5,66.5C 1532.49,66.3337 1525.49,66.5004 1518.5,67C 1510.83,78 1503.17,89 1495.5,100C 1483.17,100.667 1470.83,100.667 1458.5,100C 1476.66,76.0106 1492.99,50.844 1507.5,24.5 Z"/></g>
<g><path style="opacity:0.968" fill="#007eff" d="M 1747.5,42.5 C 1747.5,43.8333 1747.5,45.1667 1747.5,46.5C 1746.41,52.8902 1745.41,59.3902 1744.5,66C 1730.16,66.1672 1715.82,66.6672 1701.5,67.5C 1704.83,75.8333 1708.17,84.1667 1711.5,92.5C 1701.18,93.6656 1690.85,93.8323 1680.5,93C 1677.14,84.594 1673.98,76.094 1671,67.5C 1663.89,66.1879 1656.72,66.1879 1649.5,67.5C 1644.5,75.5 1639.5,83.5 1634.5,91.5C 1622.83,92.8333 1611.17,92.8333 1599.5,91.5C 1613.51,70.1593 1626.51,48.1593 1638.5,25.5C 1649.83,24.1667 1661.17,24.1667 1672.5,25.5C 1669.88,31.2401 1666.88,36.7401 1663.5,42C 1691.5,42.5 1719.5,42.6666 1747.5,42.5 Z"/></g>
<g><path style="opacity:0.965" fill="#007eff" d="M 481.5,27.5 C 492.5,27.5 503.5,27.5 514.5,27.5C 512.869,33.5982 510.536,39.4315 507.5,45C 536.831,45.5 566.165,45.6666 595.5,45.5C 594.599,54.2407 593.265,62.9073 591.5,71.5C 578.183,72.4992 564.85,72.8325 551.5,72.5C 550.622,79.6782 548.956,86.6782 546.5,93.5C 563.153,94.4995 579.82,94.8328 596.5,94.5C 595.171,103.795 594.171,113.129 593.5,122.5C 575.83,122.333 558.164,122.5 540.5,123C 558.859,132.841 576.192,144.174 592.5,157C 585.5,163.333 578.5,169.667 571.5,176C 570.092,176.315 568.759,175.982 567.5,175C 553.199,163.198 538.199,152.365 522.5,142.5C 506.915,161.421 488.582,177.088 467.5,189.5C 458.692,183.192 450.025,176.692 441.5,170C 454.716,162.115 467.382,153.448 479.5,144C 486.573,137.598 492.906,130.598 498.5,123C 482.503,122.5 466.503,122.333 450.5,122.5C 451.664,113.185 452.664,103.852 453.5,94.5C 473.503,94.6666 493.503,94.5 513.5,94C 516.511,87.1245 518.511,79.9578 519.5,72.5C 503.83,72.6666 488.163,72.4999 472.5,72C 466.099,70.6966 463.599,66.8633 465,60.5C 470.498,49.5046 475.998,38.5046 481.5,27.5 Z"/></g>
<g><path style="opacity:0.971" fill="#007eff" d="M 1266.5,141.5 C 1271.8,130.136 1276.63,118.469 1281,106.5C 1289.94,80.5262 1298.77,54.5262 1307.5,28.5C 1318.83,27.1667 1330.17,27.1667 1341.5,28.5C 1336.93,42.054 1332.26,55.554 1327.5,69C 1356.16,69.5 1384.83,69.6666 1413.5,69.5C 1412.75,79.8575 1411.75,90.1909 1410.5,100.5C 1403.83,100.5 1397.17,100.5 1390.5,100.5C 1384.12,145.985 1370.12,188.985 1348.5,229.5C 1363.67,258.535 1381.34,285.869 1401.5,311.5C 1390.06,315.445 1378.39,318.278 1366.5,320C 1353.46,300.751 1341.29,280.918 1330,260.5C 1316.43,281.415 1300.6,300.581 1282.5,318C 1281.39,318.638 1280.22,319.138 1279,319.5C 1268.31,315.716 1257.81,311.549 1247.5,307C 1274.11,283.397 1296.44,256.397 1314.5,226C 1305.43,205.676 1297.59,184.842 1291,163.5C 1288.36,169.768 1285.52,175.935 1282.5,182C 1271.82,182.832 1261.15,182.666 1250.5,181.5C 1256.41,168.36 1261.74,155.027 1266.5,141.5 Z M 1316.5,100.5 C 1330.83,100.5 1345.17,100.5 1359.5,100.5C 1354.07,131.965 1344.9,162.298 1332,191.5C 1322.99,167.637 1315.49,143.304 1309.5,118.5C 1311.84,112.471 1314.17,106.471 1316.5,100.5 Z"/></g>
<g><path style="opacity:0.969" fill="#007eff" d="M 941.5,28.5 C 951.833,28.5 962.167,28.5 972.5,28.5C 976.008,45.5333 979.675,62.5333 983.5,79.5C 991.86,79.8312 1000.19,79.4979 1008.5,78.5C 1014.64,62.088 1020.97,45.7547 1027.5,29.5C 1038.48,28.5012 1049.48,28.1679 1060.5,28.5C 1054.57,45.287 1048.24,61.9537 1041.5,78.5C 1050.48,79.4982 1059.48,79.8315 1068.5,79.5C 1067.21,89.4625 1066.21,99.4625 1065.5,109.5C 1046.16,109.167 1026.82,109.5 1007.5,110.5C 1004.61,126.412 1002.27,142.412 1000.5,158.5C 1022.83,158.5 1045.17,158.5 1067.5,158.5C 1066.87,168.872 1065.87,179.206 1064.5,189.5C 1043.83,189.333 1023.16,189.5 1002.5,190C 1015.52,233.406 1037.52,271.406 1068.5,304C 1057.98,309.093 1047.31,313.927 1036.5,318.5C 1026.72,308.204 1018.22,296.871 1011,284.5C 999.985,264.804 990.319,244.471 982,223.5C 967.438,260.32 945.271,291.653 915.5,317.5C 905.939,312.926 896.439,308.259 887,303.5C 886.333,302.833 886.333,302.167 887,301.5C 922.288,271.261 946.788,233.928 960.5,189.5C 942.5,189.5 924.5,189.5 906.5,189.5C 907.582,179.174 908.582,168.841 909.5,158.5C 928.833,158.5 948.167,158.5 967.5,158.5C 969.254,142.132 971.254,125.798 973.5,109.5C 956.5,109.5 939.5,109.5 922.5,109.5C 923.5,99.5003 924.5,89.5003 925.5,79.5C 934.525,79.8315 943.525,79.4982 952.5,78.5C 948.199,61.9649 944.533,45.2982 941.5,28.5 Z"/></g>
<g><path style="opacity:0.974" fill="#007eff" d="M 1266.5,141.5 C 1259.87,148.303 1253.37,155.303 1247,162.5C 1236.59,152.089 1225.59,142.422 1214,133.5C 1212.5,143.517 1211,153.517 1209.5,163.5C 1198.85,164.499 1188.19,164.832 1177.5,164.5C 1179.16,155.898 1179.99,147.231 1180,138.5C 1164.28,153.69 1146.94,166.69 1128,177.5C 1121.5,170.5 1115,163.5 1108.5,156.5C 1131.71,143.122 1153.71,127.956 1174.5,111C 1157.82,110.833 1141.16,110.333 1124.5,109.5C 1125.83,100.833 1127.17,92.1667 1128.5,83.5C 1148.49,82.5004 1168.49,82.167 1188.5,82.5C 1190.58,64.8425 1192.58,47.1758 1194.5,29.5C 1205.17,29.5 1215.83,29.5 1226.5,29.5C 1224.75,47.1944 1222.75,64.8611 1220.5,82.5C 1238.17,82.5 1255.83,82.5 1273.5,82.5C 1272.5,91.8324 1271.5,101.166 1270.5,110.5C 1254.5,110.333 1238.5,110.5 1222.5,111C 1237.9,120.25 1252.56,130.417 1266.5,141.5 Z"/></g>
<g><path style="opacity:0.943" fill="#007eff" d="M 1135.5,35.5 C 1145.85,35.1681 1156.19,35.5014 1166.5,36.5C 1172.4,48.9684 1177.74,61.6351 1182.5,74.5C 1171.81,74.832 1161.15,74.4987 1150.5,73.5C 1144.93,61.0256 1139.93,48.3589 1135.5,35.5 Z"/></g>
<g><path style="opacity:0.939" fill="#007eff" d="M 1247.5,36.5 C 1258.17,36.3335 1268.84,36.5002 1279.5,37C 1273.29,49.2453 1266.96,61.412 1260.5,73.5C 1249.85,74.6657 1239.18,74.8324 1228.5,74C 1234.97,61.5512 1241.31,49.0512 1247.5,36.5 Z"/></g>
<g><path style="opacity:0.973" fill="#007eff" d="M 798.5,41.5 C 841.167,41.5 883.833,41.5 926.5,41.5C 925.5,51.4997 924.5,61.4997 923.5,71.5C 918.167,71.5 912.833,71.5 907.5,71.5C 901.782,119.742 895.782,167.908 889.5,216C 896.899,215.153 904.232,213.653 911.5,211.5C 912.167,211.833 912.833,212.167 913.5,212.5C 912.167,222.167 910.833,231.833 909.5,241.5C 901.771,244.63 893.771,246.964 885.5,248.5C 883.406,270.914 880.74,293.248 877.5,315.5C 866.854,316.499 856.187,316.832 845.5,316.5C 848.243,296.887 850.577,277.22 852.5,257.5C 826.602,263.013 800.602,268.013 774.5,272.5C 775.173,262.45 776.34,252.45 778,242.5C 782.562,240.849 787.229,239.516 792,238.5C 799.08,182.857 805.914,127.19 812.5,71.5C 806.833,71.5 801.167,71.5 795.5,71.5C 796.793,61.5312 797.793,51.5312 798.5,41.5 Z M 842.5,71.5 C 853.833,71.5 865.167,71.5 876.5,71.5C 875.249,82.5105 873.915,93.5105 872.5,104.5C 861.167,104.5 849.833,104.5 838.5,104.5C 840.02,93.5247 841.354,82.5247 842.5,71.5 Z M 834.5,132.5 C 845.833,132.5 857.167,132.5 868.5,132.5C 867.726,142.917 866.393,153.25 864.5,163.5C 853.52,164.499 842.52,164.832 831.5,164.5C 832.5,153.833 833.5,143.166 834.5,132.5 Z M 827.5,192.5 C 838.853,192.168 850.186,192.501 861.5,193.5C 859.676,204.093 858.343,214.76 857.5,225.5C 846.277,227.511 835.111,229.845 824,232.5C 823.5,232.167 823,231.833 822.5,231.5C 824.411,218.544 826.078,205.544 827.5,192.5 Z"/></g>
<g><path style="opacity:0.973" fill="#007eff" d="M 627.5,42.5 C 654.835,42.3334 682.169,42.5 709.5,43C 720.202,46.3887 725.868,53.7221 726.5,65C 722.294,98.8176 718.294,132.651 714.5,166.5C 675.167,166.5 635.833,166.5 596.5,166.5C 600.337,131.803 604.504,97.136 609,62.5C 611.605,52.3998 617.772,45.7331 627.5,42.5 Z M 639.5,70.5 C 657.167,70.5 674.833,70.5 692.5,70.5C 690.759,92.9101 688.426,115.243 685.5,137.5C 667.512,138.5 649.512,138.833 631.5,138.5C 634.003,115.812 636.669,93.1452 639.5,70.5 Z"/></g>
<g><path style="opacity:0.973" fill="#007eff" d="M 1521.5,97.5 C 1579.17,97.3333 1636.83,97.5 1694.5,98C 1707.36,100.563 1714.03,108.397 1714.5,121.5C 1710.5,156.173 1706.5,190.839 1702.5,225.5C 1690.17,225.5 1677.83,225.5 1665.5,225.5C 1665.2,230.892 1664.53,236.225 1663.5,241.5C 1687.16,242.5 1710.82,242.833 1734.5,242.5C 1733.83,251.167 1733.17,259.833 1732.5,268.5C 1708.5,268.5 1684.5,268.5 1660.5,268.5C 1658.65,285.524 1656.65,302.524 1654.5,319.5C 1643.83,319.5 1633.17,319.5 1622.5,319.5C 1624.5,302.5 1626.5,285.5 1628.5,268.5C 1603.82,268.167 1579.16,268.5 1554.5,269.5C 1544.08,289.423 1529.08,304.923 1509.5,316C 1504.96,318.701 1500.29,321.201 1495.5,323.5C 1486.53,317.857 1477.87,311.857 1469.5,305.5C 1483.45,298.377 1496.45,289.877 1508.5,280C 1512.2,276.633 1515.54,272.966 1518.5,269C 1496.5,268.5 1474.5,268.333 1452.5,268.5C 1452.81,259.878 1453.81,251.378 1455.5,243C 1480.16,242.5 1504.83,242.333 1529.5,242.5C 1530.17,236.833 1530.83,231.167 1531.5,225.5C 1516.5,225.5 1501.5,225.5 1486.5,225.5C 1490.51,188.771 1495.01,152.104 1500,115.5C 1504.29,106.046 1511.45,100.046 1521.5,97.5 Z M 1530.5,121.5 C 1581.5,121.333 1632.5,121.5 1683.5,122C 1682.63,125.767 1681.97,129.601 1681.5,133.5C 1630.5,133.833 1579.5,133.5 1528.5,132.5C 1529.25,128.843 1529.92,125.177 1530.5,121.5 Z M 1526.5,154.5 C 1577.17,154.5 1627.83,154.5 1678.5,154.5C 1678.07,158.824 1677.74,163.158 1677.5,167.5C 1626.5,167.5 1575.5,167.5 1524.5,167.5C 1525.09,163.146 1525.75,158.812 1526.5,154.5 Z M 1522.5,188.5 C 1573.17,188.5 1623.83,188.5 1674.5,188.5C 1674.07,192.824 1673.74,197.158 1673.5,201.5C 1622.5,201.5 1571.5,201.5 1520.5,201.5C 1521.02,197.109 1521.69,192.776 1522.5,188.5 Z M 1563.5,225.5 C 1586.83,225.5 1610.17,225.5 1633.5,225.5C 1632.98,231.19 1632.31,236.856 1631.5,242.5C 1608.5,242.5 1585.5,242.5 1562.5,242.5C 1563.03,236.848 1563.37,231.181 1563.5,225.5 Z"/></g>
<g><path style="opacity:1" fill="#fdfeff" d="M 31.5,148.5 C 41.1724,148.334 50.8391,148.5 60.5,149C 70.547,153.937 73.047,161.437 68,171.5C 66.0616,174.106 63.5616,175.939 60.5,177C 50.8391,177.5 41.1724,177.666 31.5,177.5C 31.5,167.833 31.5,158.167 31.5,148.5 Z"/></g>
<g><path style="opacity:0.97" fill="#007eff" d="M 1170.5,172.5 C 1181.85,172.168 1193.19,172.501 1204.5,173.5C 1201.6,178.632 1199.27,183.965 1197.5,189.5C 1213.88,189.077 1230.22,189.577 1246.5,191C 1260.12,195.41 1264.96,204.576 1261,218.5C 1252.17,239.328 1238.67,256.494 1220.5,270C 1232.37,276.094 1243.7,282.927 1254.5,290.5C 1247.37,297.125 1240.37,303.958 1233.5,311C 1231.36,311.635 1229.36,311.301 1227.5,310C 1216.33,302.915 1205,296.082 1193.5,289.5C 1170.99,301.839 1147.49,311.839 1123,319.5C 1116.14,311.607 1109.64,303.44 1103.5,295C 1123.58,289.087 1142.91,281.42 1161.5,272C 1152.59,267.142 1143.59,262.476 1134.5,258C 1127.61,251.941 1126.78,245.108 1132,237.5C 1136.87,231.599 1141.37,225.433 1145.5,219C 1136.17,218.5 1126.84,218.334 1117.5,218.5C 1118.43,208.823 1119.43,199.156 1120.5,189.5C 1134.5,189.667 1148.5,189.5 1162.5,189C 1165.04,183.428 1167.7,177.928 1170.5,172.5 Z M 1180.5,218.5 C 1194.22,218.094 1207.88,218.594 1221.5,220C 1222.02,220.561 1222.36,221.228 1222.5,222C 1214.34,235.327 1203.67,246.16 1190.5,254.5C 1181.72,250.944 1173.05,247.111 1164.5,243C 1170.22,235.061 1175.55,226.894 1180.5,218.5 Z"/></g>
<g><path style="opacity:0.972" fill="#007eff" d="M 506.5,179.5 C 561.501,179.333 616.501,179.5 671.5,180C 685.244,181.243 692.244,188.743 692.5,202.5C 688.353,240.159 684.353,277.826 680.5,315.5C 609.5,315.5 538.5,315.5 467.5,315.5C 472.175,276.102 477.341,236.769 483,197.5C 487.552,187.104 495.385,181.104 506.5,179.5 Z M 514.5,209.5 C 562.505,209.167 610.505,209.5 658.5,210.5C 657.255,218.122 656.255,225.789 655.5,233.5C 607.5,233.5 559.5,233.5 511.5,233.5C 511.945,225.39 512.945,217.39 514.5,209.5 Z M 507.5,261.5 C 555.833,261.5 604.167,261.5 652.5,261.5C 651.434,269.826 650.434,278.159 649.5,286.5C 601.167,286.5 552.833,286.5 504.5,286.5C 505.573,278.175 506.573,269.842 507.5,261.5 Z"/></g>
<g><path style="opacity:1" fill="#fefeff" d="M 31.5,227.5 C 41.1724,227.334 50.8391,227.5 60.5,228C 69.5216,232.696 72.0216,239.863 68,249.5C 66.0616,252.106 63.5616,253.939 60.5,255C 50.8391,255.5 41.1724,255.666 31.5,255.5C 31.5,246.167 31.5,236.833 31.5,227.5 Z"/></g>
<g><path style="opacity:1" fill="#fafcff" d="M 31.5,300.5 C 41.5797,300.077 51.5797,300.577 61.5,302C 67.077,304.324 69.7437,308.491 69.5,314.5C 69.5483,321.625 66.2149,326.459 59.5,329C 50.1726,329.5 40.8393,329.666 31.5,329.5C 31.5,319.833 31.5,310.167 31.5,300.5 Z"/></g>
</svg>
